<svg width="48" height="48" viewBox="0 0 48 48" fill="none" xmlns="http://www.w3.org/2000/svg">
<rect width="48" height="48" rx="10" fill="#053EFF"/>
<path d="M17.4614 14.3047C18.369 14.3047 19.1939 14.3823 19.9438 14.5477C20.6897 14.7158 21.3271 14.9744 21.8637 15.3364C22.3938 15.6984 22.8114 16.1768 23.1048 16.7844C23.3957 17.3921 23.5444 18.1419 23.5444 19.0211C23.5444 19.9778 23.3246 20.7794 22.8889 21.4259C22.4519 22.0723 21.8068 22.5894 20.947 23.0032C22.1184 23.3393 22.9846 23.934 23.5612 24.7744C24.1404 25.6277 24.421 26.6491 24.421 27.8256C24.421 28.7953 24.2529 29.6227 23.8909 30.3208C23.5289 31.0319 23.0247 31.6137 22.3912 32.0662C21.7706 32.5161 21.0337 32.842 20.2321 33.0579C19.4434 33.2712 18.6134 33.3863 17.7627 33.3863H8.49146V14.3137H17.4614V14.3047ZM30.3928 30.0287C30.9617 30.582 31.78 30.86 32.8415 30.86C33.6043 30.86 34.2637 30.6686 34.8196 30.2821C35.3678 29.9071 35.6988 29.4934 35.828 29.0668H39.174C38.653 30.7216 37.8191 31.9111 36.7175 32.6222C35.6186 33.3462 34.2818 33.6953 32.7355 33.6953C31.6533 33.6953 30.6876 33.5272 29.7981 33.1781C28.928 32.829 28.1949 32.3377 27.5743 31.7042C26.9744 31.0707 26.5103 30.3079 26.1819 29.4158C25.8548 28.5237 25.6996 27.5412 25.6996 26.481C25.6996 25.4428 25.8742 24.49 26.2207 23.5979C26.5698 22.6929 27.0533 21.943 27.6687 21.2836C28.3087 20.6243 29.043 20.1265 29.9131 19.7399C30.7832 19.3534 31.7232 19.1801 32.7833 19.1801C33.9598 19.1801 34.9683 19.3922 35.8604 19.8563C36.7266 20.2959 37.4377 20.9165 38.0065 21.6663C38.5754 22.424 38.9762 23.2954 39.2218 24.2779C39.4675 25.2476 39.5451 26.269 39.4933 27.355H29.5511C29.5511 28.441 29.9131 29.465 30.4691 30.0248L30.3656 30.0636L30.3928 30.0287ZM17.1537 30.0933C17.5636 30.0933 17.9553 30.0545 18.3251 29.9731C18.7 29.8955 19.0336 29.7597 19.3115 29.5852C19.583 29.4107 19.8158 29.1611 19.9838 28.8315C20.1519 28.5212 20.2295 28.0945 20.2295 27.5903C20.2295 26.6206 19.9451 25.9225 19.402 25.4958C18.8461 25.0821 18.1221 24.8752 17.2171 24.8752H12.6804V30.1114H17.1537V30.0726V30.0933ZM34.7459 22.7885C34.2908 22.2908 33.5306 22.0232 32.6036 22.0232C31.9985 22.0232 31.4982 22.1188 31.0961 22.3309C30.7057 22.5248 30.385 22.7834 30.1394 23.0937C29.8937 23.404 29.7295 23.7142 29.6326 24.0633C29.5356 24.3995 29.4774 24.7098 29.458 24.9813H35.6147C35.5242 24.0116 35.1881 23.3005 34.7356 22.7963V22.8092L34.7459 22.7885ZM16.921 21.9934C17.6631 21.9934 18.2785 21.8202 18.7634 21.4608C19.2469 21.1117 19.4796 20.5299 19.4796 19.7309C19.4796 19.2861 19.3891 18.9228 19.2469 18.6371C19.0788 18.3527 18.859 18.1329 18.6005 17.9752C18.329 17.8148 18.0187 17.7037 17.6696 17.6429C17.3205 17.5744 16.9456 17.5472 16.5836 17.5472H12.6674V21.9947H16.921V21.9934ZM28.6836 15.5833H36.3995V17.4632H28.6836V15.5678V15.5808V15.5833Z" fill="white"/>
</svg>
