<svg width="48" height="48" viewBox="0 0 48 48" fill="none" xmlns="http://www.w3.org/2000/svg">
<rect width="48" height="48" rx="10" fill="#283618"/>
<path d="M24 8.87549C15.4315 8.87549 8.49146 15.8194 8.49146 24.384C8.49146 31.2375 12.9347 37.0494 19.0954 39.0978C19.8709 39.2438 20.1552 38.7643 20.1552 38.3521C20.1552 37.9837 20.1423 37.008 20.1358 35.7156C15.8218 36.6513 14.912 33.6349 14.912 33.6349C14.2064 31.8449 13.1867 31.3668 13.1867 31.3668C11.7819 30.4052 13.2952 30.4246 13.2952 30.4246C14.8525 30.5332 15.6706 32.022 15.6706 32.022C17.0535 34.3935 19.3009 33.7086 20.1875 33.3118C20.3271 32.3089 20.7264 31.6252 21.1697 31.2375C17.7255 30.8498 14.1056 29.5161 14.1056 23.5737C14.1056 21.8807 14.7065 20.4979 15.7016 19.4123C15.5272 19.0207 15.0038 17.444 15.8373 15.3077C15.8373 15.3077 17.1362 14.8915 20.1022 16.8973C21.3429 16.5522 22.6611 16.3816 23.9793 16.3739C25.2976 16.3816 26.6158 16.5522 27.8565 16.8973C30.8031 14.8915 32.1019 15.3077 32.1019 15.3077C32.9355 17.444 32.4121 19.0207 32.257 19.4123C33.2457 20.4979 33.8467 21.8807 33.8467 23.5737C33.8467 29.5316 30.2215 30.8434 26.7709 31.2246C27.3137 31.6899 27.8177 32.6411 27.8177 34.0937C27.8177 36.1692 27.7983 37.8364 27.7983 38.3404C27.7983 38.7475 28.0697 39.2322 28.8645 39.0771C35.0692 37.0429 39.5086 31.2272 39.5086 24.384C39.5086 15.8194 32.5646 8.87549 24 8.87549Z" fill="white"/>
</svg>
