<svg width="48" height="48" viewBox="0 0 48 48" fill="none" xmlns="http://www.w3.org/2000/svg">
<rect width="48" height="48" rx="10" fill="url(#paint0_linear_34_93)"/>
<path d="M24 8.49146C19.7869 8.49146 19.2609 8.51084 17.6066 8.58451C15.9549 8.66205 14.8306 8.92182 13.8419 9.30565C12.8222 9.70112 11.9563 10.2323 11.0943 11.0943C10.2323 11.9563 9.69983 12.8209 9.30565 13.8419C8.92182 14.8306 8.66076 15.9549 8.58451 17.6066C8.50696 19.2609 8.49146 19.7869 8.49146 24C8.49146 28.2132 8.51084 28.7392 8.58451 30.3934C8.66205 32.0438 8.92182 33.1694 9.30565 34.1581C9.70112 35.1765 10.2323 36.0437 11.0943 36.9057C11.9563 37.7664 12.8209 38.3002 13.8419 38.6944C14.8319 39.0769 15.9562 39.3393 17.6066 39.4155C19.2609 39.4931 19.7869 39.5086 24 39.5086C28.2132 39.5086 28.7392 39.4892 30.3934 39.4155C32.0438 39.338 33.1694 39.0769 34.1581 38.6944C35.1765 38.2989 36.0437 37.7664 36.9057 36.9057C37.7664 36.0437 38.3002 35.1804 38.6944 34.1581C39.0769 33.1694 39.3393 32.0438 39.4155 30.3934C39.4931 28.7392 39.5086 28.2132 39.5086 24C39.5086 19.7869 39.4892 19.2609 39.4155 17.6066C39.338 15.9562 39.0769 14.8293 38.6944 13.8419C38.2989 12.8222 37.7664 11.9563 36.9057 11.0943C36.0437 10.2323 35.1804 9.69983 34.1581 9.30565C33.1694 8.92182 32.0438 8.66076 30.3934 8.58451C28.7392 8.50696 28.2132 8.49146 24 8.49146ZM24 11.283C28.1395 11.283 28.6332 11.3037 30.2681 11.3748C31.7801 11.4458 32.6008 11.6966 33.1462 11.9111C33.8725 12.1915 34.3869 12.5276 34.9323 13.0691C35.4738 13.6119 35.8098 14.1275 36.0902 14.8538C36.3022 15.3992 36.5555 16.2199 36.624 17.732C36.6976 19.3681 36.7144 19.8592 36.7144 24C36.7144 28.1408 36.6951 28.6332 36.6188 30.2681C36.54 31.7801 36.288 32.6008 36.0747 33.1462C35.7852 33.8725 35.4557 34.3869 34.9129 34.9323C34.3714 35.4738 33.8479 35.8098 33.1294 36.0902C32.5866 36.3022 31.753 36.5555 30.2409 36.624C28.5944 36.6976 28.1098 36.7144 23.9612 36.7144C19.8114 36.7144 19.3268 36.6951 17.6816 36.6188C16.1682 36.54 15.3346 36.288 14.7918 36.0747C14.0564 35.7852 13.5511 35.4557 13.0096 34.9129C12.4655 34.3714 12.1179 33.8479 11.8465 33.1294C11.6332 32.5866 11.3825 31.753 11.3037 30.2409C11.2455 28.6125 11.2248 28.1098 11.2248 23.9806C11.2248 19.8502 11.2455 19.3462 11.3037 17.6984C11.3825 16.1863 11.6332 15.354 11.8465 14.8112C12.1179 14.0745 12.4655 13.5705 13.0096 13.0264C13.5511 12.4849 14.0564 12.136 14.7918 11.8659C15.3346 11.6513 16.1501 11.3993 17.6622 11.3218C19.31 11.2636 19.7946 11.2442 23.9419 11.2442L24 11.283ZM24 16.0364C19.5995 16.0364 16.0364 19.6033 16.0364 24C16.0364 28.4006 19.6033 31.9637 24 31.9637C28.4006 31.9637 31.9637 28.3967 31.9637 24C31.9637 19.5995 28.3967 16.0364 24 16.0364ZM24 29.1695C21.1439 29.1695 18.8305 26.8562 18.8305 24C18.8305 21.1439 21.1439 18.8305 24 18.8305C26.8562 18.8305 29.1695 21.1439 29.1695 24C29.1695 26.8562 26.8562 29.1695 24 29.1695ZM34.14 15.7223C34.14 16.7498 33.3051 17.5833 32.279 17.5833C31.2516 17.5833 30.418 16.7485 30.418 15.7223C30.418 14.6962 31.2528 13.8626 32.279 13.8626C33.3039 13.8613 34.14 14.6962 34.14 15.7223Z" fill="white"/>
<defs>
<linearGradient id="paint0_linear_34_93" x1="8.5" y1="40.5" x2="45" y2="3" gradientUnits="userSpaceOnUse">
<stop stop-color="#F9CE34"/>
<stop offset="0.484375" stop-color="#EE2A7B"/>
<stop offset="1" stop-color="#6228D7"/>
</linearGradient>
</defs>
</svg>
