<svg width="48" height="48" viewBox="0 0 48 48" fill="none" xmlns="http://www.w3.org/2000/svg">
<rect width="48" height="48" rx="10" fill="#0077B5"/>
<path d="M34.9167 34.9232H30.3236V27.7259C30.3236 26.0097 30.2887 23.801 27.9301 23.801C25.5354 23.801 25.1696 25.6685 25.1696 27.5993V34.9232H20.5765V20.1229H24.9887V22.1403H25.0481C25.6646 20.9771 27.1638 19.7494 29.4035 19.7494C34.0573 19.7494 34.918 22.8123 34.918 26.7993L34.9167 34.9232ZM15.3889 18.0977C13.9104 18.0977 12.7227 16.901 12.7227 15.4289C12.7227 13.9582 13.9117 12.7628 15.3889 12.7628C16.8622 12.7628 18.0564 13.9582 18.0564 15.4289C18.0564 16.901 16.8609 18.0977 15.3889 18.0977ZM17.6919 34.9232H13.0859V20.1229H17.6919V34.9232ZM37.2146 8.49146H10.7803C9.51502 8.49146 8.49146 9.49176 8.49146 10.726V37.274C8.49146 38.5096 9.51502 39.5086 10.7803 39.5086H37.2107C38.4747 39.5086 39.5086 38.5096 39.5086 37.274V10.726C39.5086 9.49176 38.4747 8.49146 37.2107 8.49146L37.2146 8.49146Z" fill="white"/>
</svg>
