<svg width="48" height="48" viewBox="0 0 48 48" fill="none" xmlns="http://www.w3.org/2000/svg">
<rect width="48" height="48" rx="10" fill="#1DA1F2"/>
<path d="M39.4478 14.3973C38.3041 14.9001 37.0829 15.2425 35.797 15.3989C37.1074 14.6093 38.1154 13.3648 38.5923 11.8799C37.3633 12.5971 36.0012 13.1192 34.5512 13.41C33.3933 12.1707 31.743 11.3953 29.9105 11.3953C26.3992 11.3953 23.5522 14.2423 23.5522 17.7496C23.5522 18.2536 23.6104 18.7383 23.7163 19.2022C18.4307 18.9528 13.7461 16.4147 10.6109 12.5777C10.059 13.5108 9.75018 14.5951 9.75018 15.7762C9.75018 17.9861 10.8745 19.9285 12.5778 21.0696C11.5349 21.036 10.554 20.7491 9.69849 20.2735V20.3524C9.69849 23.4346 11.8864 26.005 14.798 26.5904C14.2643 26.7339 13.7008 26.8114 13.1232 26.8114C12.7174 26.8114 12.3284 26.7726 11.9394 26.7003C12.7548 29.2242 15.0991 31.0645 17.8892 31.1162C15.7181 32.8207 12.9668 33.8365 10.0035 33.8365C9.49947 33.8365 8.99675 33.8068 8.49146 33.7499C11.3204 35.5514 14.6533 36.6047 18.2576 36.6047C29.9583 36.6047 36.3488 26.9174 36.3488 18.5302C36.3488 18.2601 36.3488 17.9874 36.3294 17.716C37.5714 16.8256 38.6556 15.7 39.5086 14.4232L39.4478 14.3973Z" fill="white"/>
</svg>
